<?xml version="1.0" encoding="UTF-8"?>
<!DOCTYPE svg PUBLIC "-//W3C//DTD SVG 1.1//EN" "http://www.w3.org/Graphics/SVG/1.1/DTD/svg11.dtd">
<!-- Creator: CorelDRAW 2021 (64 Bit) -->
<svg xmlns="http://www.w3.org/2000/svg" xml:space="preserve" width="201.211mm" height="211.688mm" version="1.1" style="shape-rendering:geometricPrecision; text-rendering:geometricPrecision; image-rendering:optimizeQuality; fill-rule:evenodd; clip-rule:evenodd"
viewBox="0 0 1217.4 1280.79"
 xmlns:xlink="http://www.w3.org/1999/xlink"
 xmlns:xodm="http://www.corel.com/coreldraw/odm/2003">
 <defs>
  <style type="text/css">
   <![CDATA[
    .fil0 {fill:white}
   ]]>
  </style>
 </defs>
 <g id="Camada_x0020_1">
  <metadata id="CorelCorpID_0Corel-Layer"/>
  <g id="_1709318474336">
   <path class="fil0" d="M216.69 223.75c29.33,45.81 102.02,35.15 114.54,-19.07 4.43,-19.18 1.87,-70.57 1.87,-93.71 -0,-28.19 4.02,-62.45 -10.34,-82.74 -12,-16.96 -34.69,-33.07 -65.32,-26.85 -65.12,13.22 -50.91,86 -50.7,139.47 0.11,28.38 -3.87,61.32 9.95,82.91z"/>
   <path class="fil0" d="M675.9 142.97c0,31.18 -4.44,58.59 11.15,82.23 30.23,45.84 103.16,31.32 114.12,-22.79 3.97,-19.63 1.3,-70.54 1.3,-93.59 -0,-27.93 4.22,-61.08 -11.18,-81.81 -13.01,-17.53 -35.21,-32.03 -65.98,-25.18 -61.61,13.72 -49.41,78.54 -49.41,141.14z"/>
   <g>
    <path class="fil0" d="M72.67 407.67l854.18 0.21 -0.02 356.84 71.5 0.17 0 -513.06c0,-55.12 11.74,-125.88 -79.65,-125.58 -34.73,0.11 -70.01,0.53 -104.68,-0.12 -4.3,32.43 5.52,75.53 -6.8,103.88 -25.14,57.88 -106.55,61.14 -135.36,1.84 -13.52,-27.83 -4.13,-72.71 -7.46,-105.44l-319.47 -0.14c-4.04,33.71 5.74,74.12 -7.1,103.98 -24.28,56.45 -106.95,61.92 -135.19,1.28 -14.15,-30.38 -3.5,-70.85 -7.61,-105.26 -37.68,0 -75.36,0.04 -113.03,-0.01 -38.26,-0.05 -62.46,11.46 -75.11,39.86 -10.9,24.47 -5.55,182.83 -5.55,222.33l0 572.03c0,42.88 -0.3,68.25 27.01,87.83 26.98,19.34 66.14,13.65 102.74,13.65l343.64 0c75.41,0 157.3,-3.04 231.89,0.22l-0.39 -93.29 -632.88 -0.28 -0.67 -560.92z"/>
    <polygon class="fil0" points="835.78,458.31 712.26,458.27 712.46,581.28 834.73,581.81 "/>
    <polygon class="fil0" points="653.03,581.95 652.76,458.11 529.17,458.2 529.26,581.82 "/>
    <polygon class="fil0" points="469.17,581.73 469.82,459.2 346.67,458.17 346.69,581.65 "/>
    <polygon class="fil0" points="286.98,748.55 287.01,627.8 164.21,627.46 164.35,749.06 "/>
    <polygon class="fil0" points="287.02,794.86 164.63,795.1 163.83,917.33 287.17,918.37 "/>
    <polygon class="fil0" points="346.74,748.37 469.43,749.09 469.42,627.41 346.58,628.12 "/>
    <polygon class="fil0" points="347.72,916.73 470.4,917.45 470.4,795.77 347.55,796.48 "/>
    <polygon class="fil0" points="529.07,626.5 529.26,750.08 652.75,749.96 652.77,626.54 "/>
    <polygon class="fil0" points="712.74,627.44 712.84,749.4 835.54,748.35 835.62,628.09 "/>
    <polygon class="fil0" points="653.32,795.47 529.9,795.45 529.91,917.36 652.42,917.57 "/>
    <path class="fil0" d="M781.02 1049.69c-6.46,-111.17 78.58,-199.65 182.68,-205.29 108.71,-5.89 197.34,77.95 204.03,180.78 7.18,110.42 -77.61,198.92 -180.69,205.96 -111.28,7.6 -200.08,-79.21 -206.02,-181.46zm164.4 -253.02c-122.73,14.63 -228.32,125.99 -212.4,268.28 13.97,124.87 127.29,230.93 269.89,214.06 121.66,-14.39 228.79,-125.29 212.92,-267.36 -14.09,-126.19 -127.64,-232 -270.41,-214.98z"/>
    <path class="fil0" d="M928.93 1067.42c0,11.73 2.88,21.53 18.63,23.04 42.85,0 85.69,0 128.54,0 11.17,0 20.75,-9.95 20.75,-21.35 0,-11.14 -9.37,-21.35 -20.75,-21.35l-104.48 0 0 -103.15c0,-11.72 -9.64,-21.43 -21.39,-21.43 -11.77,0 -21.31,9.54 -21.31,21.31 0,40.97 0,81.95 0,122.93z"/>
   </g>
  </g>
 </g>
</svg>
